<svg width="109" height="32" viewBox="0 0 109 32" fill="none" xmlns="http://www.w3.org/2000/svg">
<g clip-path="url(#clip0_584_1660)">
<path d="M30.1604 11.4187C27.997 9.25524 24.642 9.00072 22.2009 10.6435C21.8654 10.8633 21.553 11.1179 21.2638 11.4187L19.0773 13.6052L18.9847 13.6978L18.6261 14.0564L17.9551 13.3854L18.4063 12.9342L20.5928 10.7476C20.8936 10.4469 21.1481 10.1345 21.3679 9.79899C23.0107 7.35792 22.7447 4.00289 20.5928 1.83948C18.1402 -0.61316 14.1489 -0.61316 11.6846 1.83948C9.23201 4.29212 9.23201 8.29501 11.6846 10.7476L14.334 13.397L13.4084 14.3225L10.7591 11.6732C8.30649 9.22053 4.31516 9.22053 1.85095 11.6732C-0.601685 14.1258 -0.601685 18.1171 1.85095 20.5813C4.01437 22.7448 7.36939 22.9993 9.82203 21.3565C10.1575 21.1367 10.4699 20.8821 10.7591 20.5813L13.4084 17.932L14.0794 18.603L13.7786 18.8923L11.4301 21.2408C8.97749 23.6934 8.97749 27.6963 11.4301 30.1489C13.8828 32.6016 17.8857 32.6016 20.3383 30.1489C22.7909 27.6963 22.7909 23.705 20.3383 21.2408L19.9218 20.8243L17.689 18.5915L18.6145 17.6659L21.2638 20.3153C23.7165 22.7679 27.7194 22.7679 30.172 20.3153C32.6131 17.8742 32.6131 13.8713 30.1604 11.4187ZM11.2913 16.4281L8.94278 18.7766L8.93121 18.7881C8.87337 18.846 8.80395 18.9038 8.74611 18.9617C8.72297 18.9848 8.69983 18.9964 8.67669 19.0195C8.63042 19.0658 8.57257 19.1005 8.51473 19.1468C8.48002 19.1699 8.44531 19.2046 8.39904 19.2278C8.36433 19.2509 8.31805 19.274 8.28335 19.2972C8.2255 19.3319 8.15609 19.3666 8.09824 19.4013C8.08667 19.4129 8.0751 19.4129 8.06353 19.4244C8.02883 19.4476 7.98255 19.4707 7.94784 19.4823C7.94784 19.4823 7.94784 19.4823 7.93628 19.4823C6.53642 20.1649 4.80106 19.9219 3.64416 18.765C2.91531 18.0361 2.5451 17.0759 2.5451 16.1157C2.5451 15.9306 2.55667 15.757 2.5798 15.5835C2.59137 15.4678 2.61451 15.3521 2.64922 15.2249C2.68393 15.0976 2.70706 14.9935 2.75334 14.8778C2.81119 14.7043 2.8806 14.5423 2.97315 14.3803C3.031 14.2762 3.08884 14.1605 3.15826 14.0564C3.22767 13.9523 3.29709 13.8482 3.37807 13.7556C3.45905 13.663 3.54004 13.5589 3.63259 13.4664C4.45399 12.645 5.56462 12.2863 6.64054 12.3905C6.75623 12.402 6.88349 12.4136 6.99918 12.4367C7.23056 12.483 7.46194 12.5524 7.69333 12.645C7.80902 12.6912 7.91314 12.7375 8.02883 12.7954C8.35276 12.9689 8.66513 13.1887 8.93121 13.4664L11.5805 16.1157L11.2913 16.4281ZM13.4894 8.94288C13.4431 8.8966 13.3969 8.85032 13.3622 8.80405C13.3275 8.75777 13.2812 8.7115 13.2349 8.66522C13.1539 8.57267 13.0845 8.46855 13.0151 8.36442C12.9457 8.2603 12.8878 8.15618 12.83 8.04049C12.7721 7.93637 12.7259 7.82068 12.6796 7.70499C12.6102 7.53145 12.5523 7.35792 12.5176 7.18438C12.5061 7.12654 12.4945 7.06869 12.4829 7.01085C12.4598 6.89515 12.4482 6.77946 12.4366 6.6522C12.3325 5.57628 12.6912 4.46565 13.5126 3.64425C14.0563 3.10051 14.7389 2.75343 15.4446 2.61461C15.5603 2.59147 15.676 2.5799 15.8032 2.56833C15.9768 2.55676 16.1619 2.54519 16.347 2.55676C16.4627 2.55676 16.5899 2.56833 16.7056 2.59147C16.7635 2.60304 16.8213 2.61461 16.8792 2.62617C16.9948 2.64931 17.1105 2.67245 17.2262 2.70716C17.3998 2.75343 17.5733 2.82285 17.7353 2.90383C17.8972 2.98482 18.0592 3.0658 18.2212 3.16992C18.4294 3.30875 18.6261 3.47072 18.8112 3.64425C18.8806 3.71367 18.95 3.79465 19.0194 3.86406C19.031 3.87563 19.031 3.87563 19.0426 3.8872C19.1004 3.95662 19.1583 4.0376 19.2161 4.10701C19.2277 4.11858 19.2392 4.13015 19.2392 4.14172C19.2971 4.21113 19.3434 4.29212 19.3896 4.3731C19.4012 4.38467 19.4012 4.39624 19.4128 4.41938C19.4591 4.50036 19.5053 4.58134 19.54 4.66233C19.54 4.6739 19.5516 4.68547 19.5516 4.69703C19.5863 4.77802 19.6326 4.87057 19.6673 4.95155V4.96312C19.702 5.05568 19.7251 5.13666 19.7598 5.22921C19.7598 5.24078 19.7598 5.24078 19.7714 5.25235C19.7946 5.3449 19.8177 5.42589 19.8408 5.51844C19.8408 5.53001 19.8408 5.54158 19.8524 5.55314C19.864 5.6457 19.8871 5.72668 19.8987 5.81923C19.8987 5.8308 19.8987 5.85394 19.8987 5.86551C19.9102 5.95806 19.9102 6.03904 19.9218 6.1316C19.9218 6.14317 19.9218 6.15474 19.9218 6.1663C19.9218 6.25886 19.9218 6.35141 19.9218 6.44396C19.9218 6.45553 19.9218 6.45553 19.9218 6.4671C19.9218 6.55965 19.9102 6.6522 19.8987 6.74476V6.75633C19.8871 6.84888 19.8755 6.94143 19.8524 7.03398C19.8524 7.04555 19.8524 7.05712 19.8408 7.06869C19.8177 7.16124 19.7946 7.24223 19.7714 7.33478C19.7714 7.34635 19.7598 7.35792 19.7598 7.38105C19.7367 7.46204 19.702 7.55459 19.6673 7.63557C19.6673 7.64714 19.6557 7.65871 19.6557 7.67028C19.621 7.75127 19.5863 7.84382 19.54 7.9248C19.54 7.93637 19.5285 7.93637 19.5285 7.94794C19.4822 8.04049 19.4359 8.12147 19.3896 8.20246C19.3781 8.2256 19.3549 8.2603 19.3434 8.28344C19.3318 8.30658 19.3202 8.31815 19.3087 8.34129C19.2971 8.35285 19.2971 8.36442 19.2855 8.37599C19.2624 8.4107 19.2392 8.44541 19.2045 8.48011C19.1698 8.52639 19.1351 8.58424 19.0888 8.63051C19.0888 8.64208 19.0773 8.64208 19.0773 8.65365C19.0426 8.68836 19.0194 8.72306 18.9847 8.75777C18.9732 8.76934 18.9616 8.78091 18.95 8.79248C18.9269 8.82719 18.8922 8.85032 18.869 8.88503C18.8575 8.8966 18.8459 8.90817 18.8343 8.93131L17.9551 9.79899L16.185 11.5691L17.8857 9.83369L16.1272 11.5806L13.4894 8.94288ZM18.522 23.0687C19.9797 24.5264 19.9797 26.898 18.522 28.3557C17.0643 29.8134 14.6926 29.8134 13.2349 28.3557C11.7772 26.898 11.7772 24.5264 13.2349 23.0687L15.8842 20.4194L18.522 23.0687ZM15.8726 16.7983L15.1901 16.1273L16.1156 15.2017L16.7866 15.8727L15.8726 16.7983ZM28.3557 18.5221C26.898 19.9798 24.5263 19.9798 23.0686 18.5221L22.6521 18.1056L20.4193 15.8727L20.7895 15.5025L20.882 15.41L23.0686 13.2234C23.3694 12.9226 23.7049 12.6797 24.0751 12.5061C25.475 11.8236 27.2103 12.0665 28.3672 13.2234C29.8134 14.6811 29.8134 17.0644 28.3557 18.5221Z" fill="#3F3EED"/>
</g>
<path d="M46.084 22.252C44.5 22.252 43.24 21.82 42.304 20.956C41.368 20.08 40.9 18.832 40.9 17.212V14.188C40.9 12.568 41.368 11.326 42.304 10.462C43.24 9.586 44.5 9.148 46.084 9.148C47.668 9.148 48.928 9.586 49.864 10.462C50.8 11.326 51.268 12.568 51.268 14.188V17.212C51.268 18.832 50.8 20.08 49.864 20.956C48.928 21.82 47.668 22.252 46.084 22.252ZM46.084 20.128C46.972 20.128 47.662 19.87 48.154 19.354C48.646 18.838 48.892 18.148 48.892 17.284V14.116C48.892 13.252 48.646 12.562 48.154 12.046C47.662 11.53 46.972 11.272 46.084 11.272C45.208 11.272 44.518 11.53 44.014 12.046C43.522 12.562 43.276 13.252 43.276 14.116V17.284C43.276 18.148 43.522 18.838 44.014 19.354C44.518 19.87 45.208 20.128 46.084 20.128ZM53.3521 22V9.4H58.5361C59.3281 9.4 60.0241 9.562 60.6241 9.886C61.2361 10.198 61.7101 10.642 62.0461 11.218C62.3941 11.794 62.5681 12.478 62.5681 13.27V13.522C62.5681 14.302 62.3881 14.986 62.0281 15.574C61.6801 16.15 61.2001 16.6 60.5881 16.924C59.9881 17.236 59.3041 17.392 58.5361 17.392H55.7281V22H53.3521ZM55.7281 15.232H58.3021C58.8661 15.232 59.3221 15.076 59.6701 14.764C60.0181 14.452 60.1921 14.026 60.1921 13.486V13.306C60.1921 12.766 60.0181 12.34 59.6701 12.028C59.3221 11.716 58.8661 11.56 58.3021 11.56H55.7281V15.232ZM64.2153 22V9.4H72.3153V11.56H66.5913V14.566H71.8113V16.726H66.5913V19.84H72.4233V22H64.2153ZM74.1821 22V9.4H78.7001L81.2021 20.38H81.5261V9.4H83.8661V22H79.3481L76.8461 11.02H76.5221V22H74.1821ZM91.1007 22.252C90.0687 22.252 89.1807 22.066 88.4367 21.694C87.7047 21.31 87.1407 20.77 86.7447 20.074C86.3607 19.366 86.1687 18.532 86.1687 17.572V9.4H88.5447V17.644C88.5447 18.412 88.7607 19.018 89.1927 19.462C89.6367 19.906 90.2727 20.128 91.1007 20.128C91.9287 20.128 92.5587 19.906 92.9907 19.462C93.4347 19.018 93.6567 18.412 93.6567 17.644V9.4H96.0327V17.572C96.0327 18.532 95.8347 19.366 95.4387 20.074C95.0547 20.77 94.4907 21.31 93.7467 21.694C93.0147 22.066 92.1327 22.252 91.1007 22.252ZM98.3345 22V9.4H103.518C104.31 9.4 105.006 9.562 105.606 9.886C106.218 10.198 106.692 10.642 107.028 11.218C107.376 11.794 107.55 12.478 107.55 13.27V13.522C107.55 14.302 107.37 14.986 107.01 15.574C106.662 16.15 106.182 16.6 105.57 16.924C104.97 17.236 104.286 17.392 103.518 17.392H100.71V22H98.3345ZM100.71 15.232H103.284C103.848 15.232 104.304 15.076 104.652 14.764C105 14.452 105.174 14.026 105.174 13.486V13.306C105.174 12.766 105 12.34 104.652 12.028C104.304 11.716 103.848 11.56 103.284 11.56H100.71V15.232Z" fill="#083A5E"/>
<defs>
<clipPath id="clip0_584_1660">
<rect width="32" height="32" fill="white"/>
</clipPath>
</defs>
</svg>
