<svg width="30" height="27" viewBox="0 0 30 27" fill="none" xmlns="http://www.w3.org/2000/svg">
<path d="M28.125 0.625C29.1211 0.625 30 1.50391 30 2.5V23.125C30 25.2344 28.3008 26.875 26.25 26.875H3.75C1.64062 26.875 0 25.2344 0 23.125V6.25C0 5.25391 0.820312 4.375 1.875 4.375H3.75V22.1875C3.75 22.7148 4.16016 23.125 4.6875 23.125C5.15625 23.125 5.625 22.7148 5.625 22.1875V2.5C5.625 1.50391 6.44531 0.625 7.5 0.625H28.125ZM15.9375 23.125C16.4062 23.125 16.875 22.7148 16.875 22.1875C16.875 21.7188 16.4062 21.25 15.9375 21.25H10.3125C9.78516 21.25 9.375 21.7188 9.375 22.1875C9.375 22.7148 9.78516 23.125 10.3125 23.125H15.9375ZM15.9375 17.5C16.4062 17.5 16.875 17.0898 16.875 16.5625C16.875 16.0938 16.4062 15.625 15.9375 15.625H10.3125C9.78516 15.625 9.375 16.0938 9.375 16.5625C9.375 17.0898 9.78516 17.5 10.3125 17.5H15.9375ZM25.3125 23.125C25.7812 23.125 26.25 22.7148 26.25 22.1875C26.25 21.7188 25.7812 21.25 25.3125 21.25H19.6875C19.1602 21.25 18.75 21.7188 18.75 22.1875C18.75 22.7148 19.1602 23.125 19.6875 23.125H25.3125ZM25.3125 17.5C25.7812 17.5 26.25 17.0898 26.25 16.5625C26.25 16.0938 25.7812 15.625 25.3125 15.625H19.6875C19.1602 15.625 18.75 16.0938 18.75 16.5625C18.75 17.0898 19.1602 17.5 19.6875 17.5H25.3125ZM26.25 10.9375V5.3125C26.25 4.84375 25.7812 4.375 25.3125 4.375H10.3125C9.78516 4.375 9.375 4.84375 9.375 5.3125V10.9375C9.375 11.4648 9.78516 11.875 10.3125 11.875H25.3125C25.7812 11.875 26.25 11.4648 26.25 10.9375Z" fill="#33B89F"/>
</svg>
