<svg width="30" height="31" viewBox="0 0 30 31" fill="none" xmlns="http://www.w3.org/2000/svg">
<path d="M28.7109 3.15234C30 4.44141 30 6.49219 28.7109 7.78125L26.9531 9.53906L21.2109 3.79688L22.9688 2.03906C24.2578 0.75 26.3086 0.75 27.5977 2.03906L28.7109 3.15234ZM10.0781 14.9297L19.8633 5.14453L25.6055 10.8867L15.8203 20.6719C15.4688 21.0234 15 21.3164 14.5312 21.4922L9.31641 23.1914C8.78906 23.3672 8.26172 23.25 7.91016 22.8398C7.5 22.4883 7.38281 21.9023 7.55859 21.4336L9.25781 16.2188C9.43359 15.75 9.72656 15.2812 10.0781 14.9297ZM11.25 4.5C12.2461 4.5 13.125 5.37891 13.125 6.375C13.125 7.42969 12.2461 8.25 11.25 8.25H5.625C4.57031 8.25 3.75 9.12891 3.75 10.125V25.125C3.75 26.1797 4.57031 27 5.625 27H20.625C21.6211 27 22.5 26.1797 22.5 25.125V19.5C22.5 18.5039 23.3203 17.625 24.375 17.625C25.3711 17.625 26.25 18.5039 26.25 19.5V25.125C26.25 28.2305 23.7305 30.75 20.625 30.75H5.625C2.46094 30.75 0 28.2305 0 25.125V10.125C0 7.01953 2.46094 4.5 5.625 4.5H11.25Z" fill="#33B89F"/>
</svg>
