<svg width="30" height="31" viewBox="0 0 30 31" fill="none" xmlns="http://www.w3.org/2000/svg">
<path d="M15 25.2422C15.9375 25.2422 16.875 24.8906 17.6953 24.3047L30 15.457V27.9961C30 29.5195 28.7109 30.75 27.1875 30.75H2.8125C1.23047 30.75 0 29.5195 0 27.9375V15.457L12.2461 24.3047C13.0664 24.9492 14.0039 25.2422 15 25.2422ZM28.8867 10.3008C29.5898 10.8281 30 11.6484 30 12.5273V13.1719L24.375 17.2148V6.375H5.625V17.2148L0 13.1719V12.5273C0 11.6484 0.351562 10.8281 1.05469 10.3008C1.58203 9.89062 2.05078 9.53906 2.8125 9.01172V6.375C2.8125 4.85156 4.04297 3.5625 5.625 3.5625H10.1367C10.3125 3.44531 10.4883 3.32812 10.6641 3.21094C11.6602 2.50781 13.5938 0.75 15 0.808594C16.3477 0.75 18.2812 2.50781 19.2773 3.21094C19.4531 3.32812 19.6289 3.44531 19.8047 3.5625H24.375C25.8984 3.5625 27.1875 4.85156 27.1875 6.375V9.01172C27.8906 9.53906 28.3594 9.89062 28.8867 10.3008ZM10.3125 15.75C9.78516 15.75 9.375 15.3398 9.375 14.8125C9.375 14.3438 9.78516 13.875 10.3125 13.875H19.6875C20.1562 13.875 20.625 14.3438 20.625 14.8125C20.625 15.2812 20.1562 15.75 19.6875 15.75H10.3125ZM10.3125 12C9.78516 12 9.375 11.5898 9.375 11.0625C9.375 10.5938 9.78516 10.125 10.3125 10.125H19.6875C20.1562 10.125 20.625 10.5352 20.625 11.0625C20.625 11.5312 20.1562 12 19.6875 12H10.3125Z" fill="#33B89F"/>
</svg>
