<svg width="19" height="14" viewBox="0 0 19 14" fill="none" xmlns="http://www.w3.org/2000/svg">
<path d="M1.11266 10.0143C0.744274 7.61976 0.375884 5.22525 0.00749336 2.83068C-0.0742029 2.29987 0.529768 1.93783 0.959385 2.26008C2.10713 3.12089 3.25482 3.98163 4.40256 4.84244C4.78046 5.12587 5.31884 5.03363 5.58083 4.64059L8.44734 0.34079C8.75027 -0.113597 9.41789 -0.113597 9.72081 0.34079L12.5873 4.64059C12.8493 5.03363 13.3877 5.12581 13.7656 4.84244C14.9133 3.98163 16.061 3.12089 17.2088 2.26008C17.6384 1.93783 18.2424 2.29987 18.1607 2.83068C17.7923 5.22525 17.4239 7.61976 17.0556 10.0143H1.11266Z" fill="#FFB743"/>
<path d="M16.2249 13.9999H1.94448C1.48543 13.9999 1.11328 13.6277 1.11328 13.1687V11.3428H17.0562V13.1687C17.0561 13.6277 16.684 13.9999 16.2249 13.9999Z" fill="#FFB743"/>
</svg>
