<svg width="26" height="26" viewBox="0 0 26 26" fill="none" xmlns="http://www.w3.org/2000/svg">
<g clip-path="url(#clip0_676_38)">
<path d="M26 13.0006C26 5.82033 20.1797 0.000488281 13.0002 0.000488281C5.82036 0.000488281 0 5.82033 0 13.0006C0 20.1799 5.82036 26.0002 13.0002 26.0002C20.1797 26.0002 26 20.1799 26 13.0006Z" fill="#907DFF"/>
<path d="M16.5205 18.8416C16.4479 18.7351 16.3084 18.6973 16.192 18.7524C14.9038 19.3622 13.4418 20.007 13.1548 20.0633C13.1476 20.0568 13.1361 20.0451 13.1211 20.0247C13.0822 19.972 13.0633 19.9032 13.0633 19.8143C13.0633 19.0856 13.6132 16.869 14.6978 13.2263C15.6123 10.1656 15.718 9.53193 15.718 9.32153C15.718 8.99674 15.5937 8.72231 15.3583 8.52784C15.1347 8.34343 14.8223 8.25 14.4298 8.25C13.7769 8.25 13.0202 8.49786 12.1164 9.00779C11.2406 9.50211 10.2639 10.3393 9.21351 11.4962C9.13129 11.5868 9.1227 11.7223 9.19281 11.8226C9.26303 11.923 9.39325 11.9612 9.50649 11.915C9.87525 11.7645 11.7285 11.0054 11.9986 10.8357C12.2198 10.697 12.4113 10.6267 12.5678 10.6267C12.5734 10.6267 12.5782 10.6269 12.5822 10.6272C12.5841 10.6376 12.5859 10.6534 12.5859 10.6761C12.5859 10.8358 12.553 11.0248 12.4886 11.237C10.9094 16.3536 10.1418 19.4903 10.1418 20.8263C10.1418 21.2978 10.2728 21.6774 10.5312 21.9544C10.7946 22.2371 11.1497 22.3803 11.5869 22.3803C12.0528 22.3803 12.6199 22.1857 13.3204 21.7853C13.9983 21.398 15.0329 20.5459 16.4836 19.18C16.5776 19.0916 16.5932 18.9481 16.5205 18.8416Z" fill="white"/>
<path d="M16.4696 4.01773C16.2115 3.75357 15.8812 3.61963 15.4881 3.61963C14.9987 3.61963 14.5724 3.81305 14.2212 4.19454C13.8757 4.56974 13.7004 5.03015 13.7004 5.56293C13.7004 5.98388 13.8295 6.33272 14.084 6.59972C14.342 6.87074 14.6677 7.00814 15.0522 7.00814C15.5216 7.00814 15.9456 6.80388 16.3123 6.40101C16.6727 6.00521 16.8554 5.53987 16.8554 5.01794C16.8554 4.61685 16.7256 4.28037 16.4696 4.01773Z" fill="white"/>
</g>
<defs>
<clipPath id="clip0_676_38">
<rect width="26" height="26" fill="white"/>
</clipPath>
</defs>
</svg>
