<svg width="26" height="26" viewBox="0 0 26 26" fill="none" xmlns="http://www.w3.org/2000/svg">
<path d="M25.997 3.57911V22.4186C25.997 24.3953 24.3946 25.9977 22.4179 25.9977H3.58131C1.60462 25.9977 0.00219727 24.3953 0.00219727 22.4186V3.57911C0.00219727 1.60242 1.60462 0 3.58131 0H22.4179C24.3946 0 25.997 1.60242 25.997 3.57911Z" fill="#E4E3FF"/>
<path d="M25.9983 3.57739V22.4203C25.9983 24.3972 24.3951 26.0004 22.4182 26.0004H3.58066C2.3404 26.0004 1.24632 25.3722 0.607178 24.4135C1.18133 24.798 1.86919 25.0255 2.61121 25.0255H21.4487C23.4202 25.0255 25.0234 23.4223 25.0234 21.4454V2.6079C25.0234 1.87131 24.8013 1.18344 24.4168 0.614746C25.37 1.25385 25.9983 2.34251 25.9983 3.57739Z" fill="#D0D0F7"/>
<path d="M25.9977 3.57711V6.65354H11.5743C11.3902 6.65354 11.2223 6.57228 11.114 6.43146L10.0957 5.12075C9.92243 4.89866 9.65162 4.76868 9.36997 4.76868H3.78049C3.27133 4.76868 2.8597 5.18032 2.8597 5.68944V6.074C2.8597 6.39354 2.59973 6.65354 2.2802 6.65354H0V3.57711C0 1.60022 1.60317 0.00244141 3.58003 0.00244141H22.4176C23.1542 0.00244141 23.8474 0.229912 24.4162 0.614473C24.5949 0.733614 24.7628 0.869018 24.9145 1.02069C24.9469 1.04776 24.9794 1.08026 25.0065 1.11275C25.0607 1.16694 25.1094 1.22108 25.1582 1.28065C25.4073 1.57315 25.6077 1.90353 25.7485 2.2664C25.781 2.34766 25.8081 2.42888 25.8352 2.51556C25.8623 2.5914 25.8839 2.67262 25.9002 2.7593C25.9164 2.80802 25.9218 2.85136 25.9327 2.90009C25.9381 2.91635 25.9381 2.93801 25.9435 2.95969C25.9543 3.03011 25.9652 3.10049 25.976 3.17632C25.976 3.19801 25.9815 3.22508 25.9815 3.25758C25.9923 3.36049 25.9977 3.46882 25.9977 3.57711Z" fill="#FF8D8D"/>
<path d="M23.6984 11.0136V22.0081C23.6984 22.6029 23.2162 23.0851 22.6214 23.0851H3.37783C2.78299 23.0851 2.30078 22.6029 2.30078 22.0081V11.0136C2.30078 10.4187 2.78299 9.93652 3.37783 9.93652H22.6214C23.2162 9.93652 23.6984 10.4187 23.6984 11.0136Z" fill="#D0D0F7"/>
<path d="M23.6903 10.9484C23.6686 10.943 23.6523 10.943 23.6307 10.943H4.38691C3.79121 10.943 3.3091 11.425 3.3091 12.0208V23.0156C3.3091 23.0373 3.3091 23.059 3.31452 23.0806C2.74586 23.0481 2.30176 22.5823 2.30176 22.0082V11.0134C2.30176 10.4176 2.78374 9.93555 3.37957 9.93555H22.6232C23.192 9.93555 23.6578 10.3796 23.6903 10.9484Z" fill="#C2C2EF"/>
<path d="M16.1461 3.47932C16.1461 4.19551 15.5705 4.77113 14.8543 4.77113C14.1448 4.77113 13.5625 4.19551 13.5625 3.47932C13.5625 2.76312 14.1448 2.1875 14.8543 2.1875C15.5705 2.1875 16.1461 2.76312 16.1461 3.47932Z" fill="#7979F7"/>
<path d="M16.147 3.4776C16.147 4.19796 15.5729 4.77208 14.8579 4.77208C14.3759 4.77208 13.9535 4.50669 13.7314 4.11132C13.9209 4.22504 14.1377 4.28461 14.3705 4.28461C15.0855 4.28461 15.6596 3.71049 15.6596 2.99016C15.6596 2.75727 15.6 2.54603 15.4917 2.35645C15.8817 2.57311 16.147 2.99555 16.147 3.4776Z" fill="#5E5EEF"/>
<path d="M19.4916 3.47932C19.4916 4.19551 18.916 4.77113 18.1997 4.77113C17.4903 4.77113 16.908 4.19551 16.908 3.47932C16.908 2.76312 17.4903 2.1875 18.1997 2.1875C18.916 2.1875 19.4916 2.76312 19.4916 3.47932Z" fill="#00D67F"/>
<path d="M19.4923 3.4776C19.4923 4.19796 18.9181 4.77208 18.2031 4.77208C17.7212 4.77208 17.2987 4.50669 17.0767 4.11132C17.2661 4.22504 17.4829 4.28461 17.7157 4.28461C18.4307 4.28461 19.0048 3.71049 19.0048 2.99016C19.0048 2.75727 18.9452 2.54603 18.8369 2.35645C19.2269 2.57311 19.4923 2.99555 19.4923 3.4776Z" fill="#00C179"/>
<path d="M22.8385 3.47932C22.8385 4.19551 22.2629 4.77113 21.5467 4.77113C20.8372 4.77113 20.2549 4.19551 20.2549 3.47932C20.2549 2.76312 20.8372 2.1875 21.5467 2.1875C22.2629 2.1875 22.8385 2.76312 22.8385 3.47932Z" fill="#FC6559"/>
<path d="M22.8387 3.47809C22.8387 4.19845 22.2645 4.77257 21.5496 4.77257C21.0676 4.77257 20.6451 4.50718 20.4231 4.11181C20.6126 4.22553 20.8293 4.2851 21.0622 4.2851C21.7771 4.2851 22.3512 3.71098 22.3512 2.99065C22.3512 2.75776 22.2917 2.54652 22.1834 2.35693C22.5733 2.57359 22.8387 2.99604 22.8387 3.47809Z" fill="#F05543"/>
<g opacity="0.3">
<path d="M4.06034 0.956543H4.7516C5.00179 0.956543 5.20477 1.15952 5.20477 1.40971C5.20477 1.6599 5.00179 1.86288 4.7516 1.86288H4.06034C3.81016 1.86288 3.60718 1.6599 3.60718 1.40971C3.60718 1.15952 3.81016 0.956543 4.06034 0.956543Z" fill="white"/>
</g>
<g opacity="0.3">
<path d="M5.96293 0.957031H11.5965C11.8467 0.957031 12.0497 1.16001 12.0497 1.4102C12.0497 1.66038 11.8467 1.86336 11.5965 1.86336H5.96293C5.71275 1.86336 5.50977 1.66038 5.50977 1.4102C5.50977 1.16001 5.71275 0.957031 5.96293 0.957031Z" fill="white"/>
</g>
<path d="M25.9968 3.5769V6.65332H25.0219V2.60741C25.0219 1.87082 24.7998 1.18295 24.4153 0.614258C24.594 0.733398 24.7619 0.868803 24.9136 1.02047C24.9461 1.04755 24.9785 1.08004 25.0056 1.11254C25.0598 1.16672 25.1085 1.22087 25.1573 1.28044C25.4064 1.57293 25.6068 1.90331 25.7476 2.26619C25.7801 2.34745 25.8072 2.42867 25.8343 2.51535C25.8614 2.59118 25.883 2.6724 25.8993 2.75908C25.9155 2.80781 25.9209 2.85115 25.9318 2.89987C25.9372 2.91614 25.9372 2.93779 25.9426 2.95948C25.9535 3.02989 25.9643 3.10027 25.9751 3.17611C25.9751 3.19779 25.9806 3.22487 25.9806 3.25736C25.9914 3.36027 25.9968 3.4686 25.9968 3.5769Z" fill="#FF7B7B"/>
<path d="M13.1696 23.0804L12.9596 21.0411C12.9044 20.6645 12.7194 20.3301 12.4596 20.0802C12.3525 19.9828 12.2357 19.8951 12.1058 19.827C12.0377 19.7913 11.9727 19.762 11.9046 19.7328C11.8494 19.7133 11.7942 19.6939 11.7357 19.6809C11.713 19.6776 11.6838 19.6679 11.6611 19.6614H11.6546L10.5833 19.4439L10.5054 19.4277L9.78476 19.2784L9.71335 19.2621L9.56729 19.2329H9.55429L7.22999 19.2394H7.21703L7.07092 19.2686L6.99952 19.2816L6.27562 19.4342L6.20092 19.4504L5.9737 19.4959L5.12644 19.6712H5.12319C5.09723 19.6776 5.07124 19.6809 5.04204 19.6906C4.98683 19.7036 4.93167 19.7198 4.87972 19.7426C4.80832 19.7653 4.74012 19.801 4.67521 19.8335C4.54539 19.9049 4.42849 19.9893 4.32138 20.0867C4.05846 20.3366 3.8734 20.671 3.82145 21.0443L3.61523 23.0804H13.1696Z" fill="#F9B938"/>
<path d="M13.1679 23.0803H3.61426L3.65642 22.6778H10.6099C11.7038 22.6778 12.5608 21.7299 12.4472 20.6391C12.4018 20.3243 12.2654 20.0386 12.0674 19.8081C12.0804 19.8146 12.0934 19.8211 12.1063 19.8276C12.2362 19.8958 12.3531 19.9834 12.4602 20.0808C12.7199 20.3308 12.9049 20.6651 12.9601 21.0417L13.1679 23.0803Z" fill="#ECB021"/>
<path d="M10.0196 19.3275C9.99688 20.2137 9.26973 20.9247 8.38027 20.9214H8.37377C7.4908 20.9182 6.77665 20.2073 6.75391 19.334L6.99737 19.2821L7.06878 19.2691L7.21488 19.2399H7.22784L9.55219 19.2334H9.56515L9.71125 19.2626L9.78266 19.2788L10.0196 19.3275Z" fill="#E4E3FF"/>
<path d="M9.49072 18.2905V19.2978C9.49072 19.9085 8.99369 20.4029 8.38299 20.4002H8.38034C7.77229 20.3976 7.2832 19.9032 7.2832 19.2978V18.2905H9.49072Z" fill="#F7C9A9"/>
<path d="M9.49072 18.3901V19.141C9.14968 19.326 8.76898 19.4238 8.38034 19.4238H8.35656C7.97586 19.4186 7.61102 19.326 7.2832 19.1568V18.3901H9.49072Z" fill="#F0B68E"/>
<path d="M10.6815 15.6749V16.8166C10.6815 17.6707 10.2152 18.4507 9.52238 18.869C9.18031 19.0782 8.78161 19.1958 8.35674 19.1915C7.84254 19.1849 7.36757 19.0084 6.99065 18.7165L6.99936 18.5705L6.89696 18.4463C6.28037 17.6925 6.14965 16.6401 6.60284 15.7773C6.60718 15.7686 6.61155 15.7599 6.61808 15.749C6.88825 15.2435 7.37848 14.9102 7.76411 14.7119C8.0212 14.579 8.30009 14.5006 8.58333 14.4396C9.213 14.3023 9.35026 13.9624 9.35026 13.9624C9.58121 15.0365 10.2544 15.4897 10.6815 15.6749Z" fill="#F7C9A9"/>
<path d="M10.6815 13.7271V15.6749C10.2544 15.4897 9.58122 15.0365 9.35027 13.9624C9.35027 13.9624 9.213 14.3022 8.58334 14.4395C8.3001 14.5005 8.02121 14.5789 7.76411 14.7119C7.37848 14.9101 6.88826 15.2435 6.61808 15.7489C6.61155 15.7598 6.60719 15.7686 6.60284 15.7773C6.14965 16.6401 6.28037 17.6924 6.89697 18.4463L6.99936 18.5705L6.99065 18.7164C6.91004 18.6554 6.83596 18.5901 6.76407 18.5203C6.35009 18.1042 6.09082 17.5312 6.09082 16.8972V13.7271H10.6815Z" fill="#F7C9A9"/>
<path d="M8.69611 17.2773C8.81088 17.3602 8.82424 17.5242 8.75382 17.6469C8.68797 17.7766 8.53597 17.857 8.38464 17.8605C8.23211 17.8581 8.07964 17.7771 8.01379 17.6474C7.94331 17.5246 7.95687 17.3603 8.07244 17.2773C8.18741 17.3581 8.26774 17.3564 8.3133 17.3492C8.36242 17.336 8.37247 17.3225 8.38364 17.3192C8.39607 17.3231 8.40652 17.3362 8.45584 17.3495C8.50159 17.3568 8.58179 17.3582 8.69611 17.2773Z" fill="#E8AA80"/>
<path d="M7.80068 18.1309C7.72546 18.1309 7.67911 18.2183 7.72575 18.2773C7.87987 18.4724 8.11641 18.5984 8.38433 18.5984C8.65219 18.5984 8.88929 18.4724 9.04395 18.2775C9.09074 18.2185 9.0444 18.1309 8.96911 18.1309H7.80068Z" fill="#E8AA80"/>
<path d="M7.65097 16.4593C7.65097 16.6232 7.51818 16.757 7.35433 16.757C7.1905 16.757 7.05664 16.6232 7.05664 16.4593C7.05664 16.2955 7.1905 16.1616 7.35433 16.1616C7.51818 16.1616 7.65097 16.2955 7.65097 16.4593Z" fill="#474646"/>
<path d="M7.68078 16.0331H7.0278C6.97997 16.0331 6.94116 15.9943 6.94116 15.9465C6.94116 15.8987 6.97997 15.8599 7.0278 15.8599H7.68078C7.72861 15.8599 7.76742 15.8987 7.76742 15.9465C7.76742 15.9943 7.72861 16.0331 7.68078 16.0331Z" fill="#474646"/>
<path d="M9.71322 16.4593C9.71322 16.6232 9.58044 16.757 9.41659 16.757C9.25276 16.757 9.1189 16.6232 9.1189 16.4593C9.1189 16.2955 9.25276 16.1616 9.41659 16.1616C9.58044 16.1616 9.71322 16.2955 9.71322 16.4593Z" fill="#474646"/>
<path d="M7.60109 16.2978C7.55628 16.2687 7.50251 16.253 7.44425 16.253C7.28069 16.253 7.14851 16.3852 7.14851 16.5487C7.14851 16.6092 7.16644 16.663 7.19556 16.7101C7.11265 16.6563 7.05664 16.5644 7.05664 16.4591C7.05664 16.2956 7.19108 16.1611 7.35463 16.1611C7.4577 16.1611 7.54955 16.2149 7.60109 16.2978Z" fill="#2D2C2C"/>
<path d="M9.6668 16.3C9.62198 16.2709 9.56597 16.253 9.50772 16.253C9.34417 16.253 9.20974 16.3852 9.20974 16.5487C9.20974 16.6092 9.22766 16.663 9.25678 16.7101C9.17389 16.6563 9.12012 16.5644 9.12012 16.4591C9.12012 16.2956 9.25231 16.1611 9.41586 16.1611C9.5234 16.1611 9.61527 16.2171 9.6668 16.3Z" fill="#2D2C2C"/>
<path d="M9.74255 16.0327H9.08957C9.04174 16.0327 9.00293 15.9939 9.00293 15.946C9.00293 15.8982 9.04174 15.8594 9.08957 15.8594H9.74255C9.79038 15.8594 9.82919 15.8982 9.82919 15.946C9.82919 15.9939 9.79038 16.0327 9.74255 16.0327Z" fill="#474646"/>
<path d="M11.5445 14.9161C11.3157 17.5917 10.8059 18.6048 9.83412 19.6136L9.63368 19.5243L9.52257 18.8685C9.52255 18.8685 9.52256 18.8684 9.52257 18.8685C10.2154 18.4501 10.6817 17.6701 10.6817 16.816V16.413L10.9603 15.789C10.9603 15.789 10.8995 15.8092 10.6817 15.7177C10.2546 15.5325 9.58143 15.036 9.35046 13.9619C9.35048 13.9619 9.35046 13.9619 9.35046 13.9619C9.35013 13.9628 9.21062 14.3063 8.5712 14.4416C8.30103 14.4988 8.03465 14.5746 7.78819 14.6992C7.39912 14.8958 6.89405 15.2325 6.61826 15.7484C6.61173 15.7593 6.60737 15.7681 6.60302 15.7768C6.25247 16.4441 6.67626 17.8376 6.88621 18.4346C6.9552 18.6308 6.9837 18.8377 6.97155 19.0453C6.95514 19.3256 6.73334 19.5502 6.45328 19.5701L6.12666 19.5934C5.94393 19.6064 5.76865 19.5233 5.66392 19.373C5.23675 18.76 4.22702 17.0619 4.71401 15.2931C5.3219 13.0794 6.23697 12.3169 7.5377 12.0402C8.52468 11.831 9.47245 12.1055 9.87334 12.2515C9.98664 12.2929 10.1021 12.3256 10.222 12.3387C10.6316 12.391 11.7297 12.7308 11.5445 14.9161Z" fill="#474646"/>
<path d="M11.3026 16.3525C11.3026 16.7033 11.0168 16.9891 10.666 16.9891V15.7183C11.0168 15.7183 11.3026 16.0018 11.3026 16.3525Z" fill="#F7C9A9"/>
<path d="M11.163 15.9567C11.0554 15.8707 10.917 15.8181 10.7663 15.8181V16.9817C10.7353 16.9865 10.6995 16.9888 10.666 16.9888V15.7178C10.8667 15.7178 11.0459 15.8109 11.163 15.9567Z" fill="#F0B68E"/>
<path d="M5.46191 16.3525C5.46191 16.7033 5.74779 16.9891 6.09853 16.9891V15.7183C5.74779 15.7183 5.46191 16.0018 5.46191 16.3525Z" fill="#F7C9A9"/>
<path d="M6.10004 15.7178V16.9888C6.07146 16.9888 6.04276 16.9865 6.01639 16.9841V15.8181C5.84443 15.8181 5.68915 15.8874 5.57202 15.9973C5.6867 15.8277 5.88025 15.7178 6.10004 15.7178Z" fill="#F0B68E"/>
<path d="M20.4185 20.2248L18.8584 20.1225C18.5278 20.1008 18.2155 20.2759 18.0617 20.5693L17.3294 21.9656C17.1946 22.2228 16.8064 22.1372 16.7922 21.8471L16.5814 17.5393C16.5699 17.3047 16.8313 17.1576 17.0259 17.2892L20.5969 19.7042C20.8379 19.8671 20.7088 20.2439 20.4185 20.2248Z" fill="#474646"/>
<path d="M20.4218 20.2286L18.8642 20.1187C18.5345 20.1003 18.2137 20.2744 18.0672 20.5676L17.3342 21.9693C17.1968 22.2259 16.812 22.1343 16.7936 21.8503L16.7754 21.4562C16.7846 21.4471 16.7846 21.438 16.7936 21.4288L17.5266 20.027C17.6732 19.7338 17.9939 19.5598 18.3238 19.5781L19.8812 19.688C20.0553 19.6972 20.1744 19.5689 20.1835 19.4224L20.5959 19.7064C20.8433 19.8713 20.7149 20.2469 20.4218 20.2286Z" fill="#2D2C2C"/>
<path d="M21.9912 12.3912H13.3021C13.1524 12.3912 13.0312 12.2701 13.0312 12.1204C13.0312 11.9707 13.1524 11.8496 13.3021 11.8496H21.9912C22.1409 11.8496 22.262 11.9707 22.262 12.1204C22.262 12.2701 22.1409 12.3912 21.9912 12.3912Z" fill="#C2C2EF"/>
<path d="M21.9912 14.233H13.3021C13.1524 14.233 13.0312 14.1119 13.0312 13.9622C13.0312 13.8125 13.1524 13.6914 13.3021 13.6914H21.9912C22.1409 13.6914 22.262 13.8125 22.262 13.9622C22.262 14.1119 22.1409 14.233 21.9912 14.233Z" fill="#C2C2EF"/>
<path d="M21.9912 16.0758H13.3021C13.1524 16.0758 13.0312 15.9547 13.0312 15.805C13.0312 15.6553 13.1524 15.5342 13.3021 15.5342H21.9912C22.1409 15.5342 22.262 15.6553 22.262 15.805C22.262 15.9547 22.1409 16.0758 21.9912 16.0758Z" fill="#C2C2EF"/>
<path d="M21.9912 14.233H13.3021C13.1524 14.233 13.0312 14.1119 13.0312 13.9622C13.0312 13.8125 13.1524 13.6914 13.3021 13.6914H21.9912C22.1409 13.6914 22.262 13.8125 22.262 13.9622C22.262 14.1119 22.1409 14.233 21.9912 14.233Z" fill="#C2C2EF"/>
<path d="M21.9912 14.233H13.3021C13.1524 14.233 13.0312 14.1119 13.0312 13.9622C13.0312 13.8125 13.1524 13.6914 13.3021 13.6914H21.9912C22.1409 13.6914 22.262 13.8125 22.262 13.9622C22.262 14.1119 22.1409 14.233 21.9912 14.233Z" fill="#C2C2EF"/>
<path d="M21.9912 14.233H13.3021C13.1524 14.233 13.0312 14.1119 13.0312 13.9622C13.0312 13.8125 13.1524 13.6914 13.3021 13.6914H21.9912C22.1409 13.6914 22.262 13.8125 22.262 13.9622C22.262 14.1119 22.1409 14.233 21.9912 14.233Z" fill="#C2C2EF"/>
</svg>
