<svg width="26" height="24" viewBox="0 0 26 24" fill="none" xmlns="http://www.w3.org/2000/svg">
<path d="M25.9777 12.6969C25.9468 12.5213 25.8814 12.3536 25.7853 12.2034C25.6892 12.0533 25.5643 11.9237 25.4178 11.8221L25.2881 11.732L25.7867 10.3488C25.9083 10.01 25.8906 9.63687 25.7375 9.31115C25.5843 8.98543 25.3083 8.73376 24.9698 8.61134L24.4971 8.44102V6.1062C24.4967 5.74628 24.3535 5.40122 24.099 5.14672C23.8445 4.89222 23.4994 4.74907 23.1395 4.74867H15.2477L8.76875 0.242442C8.47303 0.0372708 8.108 -0.0422184 7.75375 0.0214139C7.3995 0.0850462 7.08496 0.286603 6.87913 0.581864L6.03956 1.78888L5.89108 1.73541C5.5523 1.61406 5.17924 1.63188 4.85358 1.78497C4.52791 1.93806 4.27616 2.21394 4.15344 2.55223L3.36197 4.74867H2.85959C2.49966 4.74907 2.15459 4.89222 1.90008 5.14672C1.64556 5.40122 1.50238 5.74628 1.50195 6.1062V8.31275L0.241968 10.1246C0.0371287 10.4205 -0.0421723 10.7854 0.0214215 11.1396C0.0850153 11.4937 0.286324 11.8083 0.581289 12.0143L0.710933 12.1045L0.212414 13.4877C0.0911179 13.8264 0.108972 14.1994 0.262067 14.5251C0.415162 14.8507 0.691028 15.1024 1.02928 15.2251L1.50195 15.3955V17.7302C1.50237 18.0901 1.64554 18.4352 1.90006 18.6897C2.15458 18.9442 2.49965 19.0874 2.85959 19.0878H10.7514L17.2303 23.594C17.526 23.7993 17.891 23.8788 18.2453 23.8152C18.5996 23.7516 18.9142 23.55 19.12 23.2546L19.9595 22.0476L20.108 22.1011C20.2758 22.1616 20.4538 22.1885 20.6319 22.1802C20.81 22.1719 20.9847 22.1285 21.1461 22.0527C21.3075 21.9768 21.4523 21.8699 21.5723 21.7381C21.6924 21.6062 21.7852 21.452 21.8456 21.2842L22.6372 19.0878H23.1396C23.4995 19.0874 23.8446 18.9442 24.0991 18.6897C24.3536 18.4352 24.4968 18.0901 24.4972 17.7302V15.5237L25.7572 13.7121C25.8593 13.5658 25.9313 13.4008 25.9692 13.2266C26.007 13.0523 26.0099 12.8723 25.9777 12.6969ZM1.50195 9.90962L0.970273 11.385C0.847351 11.2866 0.766275 11.1453 0.74337 10.9895C0.720464 10.8337 0.757429 10.6751 0.846824 10.5454L1.5019 9.60351L1.50195 9.90962ZM7.48398 1.00259C7.5781 0.867598 7.72192 0.775451 7.88389 0.746359C8.04586 0.717266 8.21276 0.753603 8.34798 0.847399L13.6401 4.52818L6.7572 2.04756L7.48398 1.00259ZM18.5151 22.8339C18.421 22.9689 18.2771 23.061 18.1152 23.0901C17.9532 23.1192 17.7863 23.0828 17.6511 22.989L12.3589 19.3083L19.2419 21.7889L18.5151 22.8339ZM23.7603 17.7304C23.7601 17.895 23.6946 18.0528 23.5782 18.1691C23.4619 18.2855 23.3041 18.351 23.1395 18.3511H2.85959C2.69501 18.3509 2.53723 18.2854 2.42089 18.169C2.30454 18.0526 2.23913 17.8948 2.23899 17.7302V6.10636C2.23919 5.94178 2.30467 5.784 2.42105 5.66764C2.53743 5.55128 2.69522 5.48583 2.85979 5.48566H23.1395C23.304 5.48588 23.4617 5.55134 23.578 5.66766C23.6944 5.78398 23.7598 5.94169 23.7601 6.1062L23.7603 17.7304ZM25.1523 13.2913L24.4972 14.2332V13.9271L25.0289 12.4517C25.1518 12.5501 25.2329 12.6914 25.2558 12.8472C25.2787 13.003 25.2417 13.1617 25.1523 13.2913H25.1523ZM22.694 8.7159C22.1844 8.71531 21.6958 8.51259 21.3354 8.1522C20.975 7.79181 20.7723 7.30319 20.7717 6.79353C20.7717 6.74514 20.7621 6.69723 20.7436 6.65253C20.7251 6.60783 20.698 6.56721 20.6638 6.533C20.6296 6.49879 20.5889 6.47165 20.5442 6.45314C20.4995 6.43463 20.4516 6.4251 20.4032 6.42511H5.59563C5.54725 6.4251 5.49934 6.43463 5.45464 6.45314C5.40994 6.47165 5.36932 6.49879 5.33511 6.533C5.30089 6.56721 5.27376 6.60783 5.25524 6.65253C5.23673 6.69723 5.22721 6.74514 5.22721 6.79353C5.22662 7.30318 5.0239 7.79179 4.66353 8.15218C4.30315 8.51257 3.81455 8.7153 3.30489 8.7159C3.20718 8.7159 3.11347 8.75472 3.04438 8.82381C2.97529 8.8929 2.93647 8.98661 2.93647 9.08432V14.7522C2.93649 14.8499 2.97531 14.9436 3.0444 15.0126C3.11349 15.0817 3.20719 15.1205 3.30489 15.1205C3.81455 15.1211 4.30315 15.3239 4.66353 15.6843C5.0239 16.0446 5.22662 16.5333 5.22721 17.0429C5.22721 17.1406 5.26603 17.2343 5.33512 17.3034C5.40421 17.3725 5.49792 17.4113 5.59563 17.4113H20.4034C20.5012 17.4113 20.5949 17.3725 20.664 17.3034C20.733 17.2343 20.7719 17.1406 20.7719 17.0429C20.7725 16.5332 20.9752 16.0446 21.3356 15.6842C21.696 15.3239 22.1846 15.1211 22.6942 15.1205C22.7919 15.1205 22.8856 15.0817 22.9547 15.0126C23.0238 14.9436 23.0626 14.8499 23.0627 14.7522V9.08432C23.0627 9.03592 23.0531 8.988 23.0346 8.94329C23.0161 8.89857 22.9889 8.85795 22.9547 8.82374C22.9204 8.78952 22.8798 8.76239 22.8351 8.74389C22.7904 8.72539 22.7424 8.71588 22.694 8.7159ZM8.23362 12.2866H4.87601C4.7783 12.2866 4.68459 12.2478 4.6155 12.1787C4.54641 12.1096 4.50759 12.0159 4.50759 11.9182C4.50759 11.8205 4.54641 11.7268 4.6155 11.6577C4.68459 11.5886 4.7783 11.5498 4.87601 11.5498H8.23362C8.33133 11.5498 8.42504 11.5886 8.49413 11.6577C8.56322 11.7268 8.60203 11.8205 8.60203 11.9182C8.60203 12.0159 8.56322 12.1096 8.49413 12.1787C8.42504 12.2478 8.33133 12.2866 8.23362 12.2866ZM12.9995 15.6878C12.254 15.6878 11.5252 15.4667 10.9053 15.0525C10.2854 14.6383 9.80223 14.0495 9.51692 13.3607C9.23162 12.6719 9.15698 11.914 9.30243 11.1828C9.44789 10.4516 9.80691 9.77988 10.3341 9.2527C10.8613 8.72551 11.533 8.3665 12.2642 8.22105C12.9954 8.07561 13.7534 8.15026 14.4422 8.43557C15.131 8.72089 15.7197 9.20404 16.1339 9.82395C16.5481 10.4439 16.7692 11.1727 16.7692 11.9182C16.768 12.9176 16.3705 13.8758 15.6638 14.5825C14.9571 15.2892 13.999 15.6867 12.9995 15.6878ZM21.123 12.2866H17.7655C17.6678 12.2866 17.5741 12.2478 17.505 12.1787C17.4359 12.1096 17.3971 12.0159 17.3971 11.9182C17.3971 11.8205 17.4359 11.7268 17.505 11.6577C17.5741 11.5886 17.6678 11.5498 17.7655 11.5498H21.1231C21.2208 11.5498 21.3145 11.5886 21.3836 11.6577C21.4527 11.7268 21.4915 11.8205 21.4915 11.9182C21.4915 12.0159 21.4527 12.1096 21.3836 12.1787C21.3145 12.2478 21.2208 12.2866 21.1231 12.2866H21.123ZM12.9995 8.88546C12.3997 8.88547 11.8134 9.06335 11.3146 9.3966C10.8159 9.72985 10.4272 10.2035 10.1977 10.7577C9.96814 11.3118 9.90809 11.9216 10.0251 12.5099C10.1421 13.0982 10.431 13.6386 10.8551 14.0627C11.2793 14.4869 11.8197 14.7757 12.4079 14.8927C12.9962 15.0097 13.606 14.9497 14.1602 14.7201C14.7143 14.4906 15.188 14.1019 15.5212 13.6031C15.8545 13.1044 16.0323 12.518 16.0323 11.9182C16.0314 11.1142 15.7116 10.3433 15.143 9.77473C14.5745 9.20617 13.8036 8.88636 12.9995 8.88546ZM13.0859 11.5601C13.4222 11.6411 14.0482 11.7918 14.0482 12.5984V12.7139C14.0479 12.9271 13.9826 13.1351 13.8611 13.3103C13.7395 13.4854 13.5676 13.6194 13.368 13.6944V13.9284C13.3686 13.9771 13.3595 14.0255 13.3412 14.0707C13.323 14.1159 13.2959 14.157 13.2617 14.1917C13.2274 14.2264 13.1866 14.2539 13.1416 14.2727C13.0966 14.2915 13.0484 14.3011 12.9996 14.3011C12.9509 14.3011 12.9026 14.2915 12.8576 14.2727C12.8126 14.2539 12.7718 14.2264 12.7376 14.1917C12.7033 14.157 12.6763 14.1159 12.658 14.0707C12.6398 14.0255 12.6306 13.9771 12.6312 13.9284V13.6944C12.4316 13.6194 12.2596 13.4855 12.138 13.3103C12.0165 13.1352 11.9511 12.9271 11.9508 12.7139C11.9508 12.6162 11.9896 12.5225 12.0587 12.4534C12.1278 12.3843 12.2215 12.3455 12.3192 12.3455C12.4169 12.3455 12.5106 12.3843 12.5797 12.4534C12.6488 12.5225 12.6876 12.6162 12.6876 12.7139C12.6886 12.7959 12.7219 12.8742 12.7803 12.9318C12.8387 12.9894 12.9174 13.0217 12.9994 13.0217C13.0814 13.0217 13.1601 12.9894 13.2184 12.9318C13.2768 12.8742 13.3101 12.7959 13.3111 12.7139V12.5987C13.3111 12.3981 13.289 12.3672 12.9131 12.2767C12.5768 12.1957 11.9508 12.0449 11.9508 11.2383V11.1228C11.9511 10.9096 12.0165 10.7016 12.138 10.5264C12.2596 10.3512 12.4316 10.2173 12.6312 10.1423V9.90825C12.6306 9.8595 12.6398 9.81113 12.658 9.76594C12.6763 9.72074 12.7033 9.67961 12.7376 9.64494C12.7718 9.61027 12.8126 9.58275 12.8576 9.56396C12.9026 9.54518 12.9509 9.5355 12.9996 9.5355C13.0484 9.5355 13.0966 9.54518 13.1416 9.56396C13.1866 9.58275 13.2274 9.61027 13.2617 9.64494C13.2959 9.67961 13.323 9.72074 13.3412 9.76594C13.3595 9.81113 13.3686 9.8595 13.368 9.90825V10.1423C13.5676 10.2173 13.7395 10.3513 13.8611 10.5265C13.9826 10.7016 14.0479 10.9096 14.0482 11.1228C14.0482 11.2205 14.0094 11.3143 13.9403 11.3833C13.8712 11.4524 13.7775 11.4912 13.6798 11.4912C13.5821 11.4912 13.4884 11.4524 13.4193 11.3833C13.3502 11.3143 13.3114 11.2205 13.3114 11.1228C13.3119 11.0816 13.3042 11.0406 13.2888 11.0023C13.2734 10.964 13.2505 10.9292 13.2215 10.8998C13.1925 10.8704 13.1579 10.8471 13.1199 10.8312C13.0818 10.8153 13.0409 10.8071 12.9996 10.8071C12.9583 10.8071 12.9175 10.8153 12.8794 10.8312C12.8413 10.8471 12.8067 10.8704 12.7777 10.8998C12.7487 10.9292 12.7259 10.964 12.7104 11.0023C12.695 11.0406 12.6873 11.0816 12.6878 11.1228V11.2383C12.6878 11.4386 12.7101 11.4695 13.0859 11.5601Z" fill="#8585FB"/>
</svg>
