<svg width="26" height="26" viewBox="0 0 26 26" fill="none" xmlns="http://www.w3.org/2000/svg">
<path d="M13.0016 25.9984C16.098 25.9978 19.0925 24.892 21.4461 22.8799C23.7997 20.8679 25.3577 18.0818 25.8399 15.0231C26.322 11.9645 25.6964 8.8342 24.0758 6.19575C22.4553 3.55729 19.9461 1.58397 17 0.630982C14.0539 -0.322004 10.8644 -0.192059 8.00554 0.997429C5.14673 2.18692 2.8064 4.35781 1.40582 7.11935C0.0052504 9.88089 -0.363573 13.0517 0.365744 16.061C1.09506 19.0703 2.87461 21.7204 5.38408 23.5343C7.59961 25.1389 10.266 26.0014 13.0016 25.9984Z" fill="#7C7BF7"/>
<path d="M13.002 15.3102C13.6578 15.3118 14.3074 15.1841 14.9138 14.9344C15.5202 14.6848 16.0714 14.3181 16.5361 13.8554C17.0007 13.3926 17.3696 12.8428 17.6217 12.2375C17.8738 11.6321 18.0041 10.983 18.0053 10.3272C18.0053 10.1963 17.9995 10.0663 17.9879 9.93724C17.8836 8.68668 17.3131 7.521 16.3895 6.67134C15.466 5.82168 14.2569 5.3501 13.002 5.3501C11.7471 5.3501 10.538 5.82168 9.6145 6.67134C8.69098 7.521 8.12048 8.68668 8.01611 9.93724C8.00456 10.0682 7.99878 10.1982 7.99878 10.3272C7.99992 10.983 8.13025 11.6321 8.38234 12.2375C8.63443 12.8428 9.00332 13.3926 9.46796 13.8554C9.93259 14.3181 10.4838 14.6848 11.0902 14.9344C11.6966 15.1841 12.3463 15.3118 13.002 15.3102Z" fill="#FFFDE6"/>
<path d="M20.6193 22.3965C20.6197 21.4661 20.4368 20.5448 20.081 19.6851C19.7252 18.8254 19.2035 18.0442 18.5457 17.3862C17.888 16.7281 17.107 16.2061 16.2475 15.85C15.3879 15.4939 14.4666 15.3105 13.5362 15.3105H12.4674C11.537 15.3105 10.6157 15.4939 9.75613 15.85C8.89658 16.2061 8.11562 16.7281 7.45785 17.3862C6.80009 18.0442 6.27841 18.8254 5.92262 19.6851C5.56683 20.5448 5.3839 21.4661 5.38428 22.3965V23.5347C7.60077 25.1376 10.2664 26.0005 13.0018 26.0005C15.7372 26.0005 18.4028 25.1376 20.6193 23.5347V22.3965Z" fill="#FFFDE6"/>
</svg>
