<svg width="26" height="26" viewBox="0 0 26 26" fill="none" xmlns="http://www.w3.org/2000/svg">
<g clip-path="url(#clip0_676_719)">
<path d="M15.4375 3.25H2.97917C1.3325 3.25 0 4.5825 0 6.22917V19.7708C0 21.4175 1.3325 22.75 2.97917 22.75H10.9742L11.2125 21.4175C11.3219 20.8108 11.6025 20.2692 12.0369 19.825L13.4453 18.4167H4.0625C3.61833 18.4167 3.25 18.0483 3.25 17.6042C3.25 17.16 3.61833 16.7917 4.0625 16.7917H14.3542C14.5492 16.7917 14.7333 16.8675 14.8742 16.9867L18.4167 13.455V6.22917C18.4167 4.5825 17.0842 3.25 15.4375 3.25ZM14.3542 14.8958H4.0625C3.61833 14.8958 3.25 14.5275 3.25 14.0833C3.25 13.6392 3.61833 13.2708 4.0625 13.2708H14.3542C14.7983 13.2708 15.1667 13.6392 15.1667 14.0833C15.1667 14.5275 14.7983 14.8958 14.3542 14.8958ZM14.3542 11.375H4.0625C3.61833 11.375 3.25 11.0067 3.25 10.5625C3.25 10.1183 3.61833 9.75 4.0625 9.75H14.3542C14.7983 9.75 15.1667 10.1183 15.1667 10.5625C15.1667 11.0067 14.7983 11.375 14.3542 11.375Z" fill="#2196F3"/>
<path d="M13.2715 2.16667H12.0798C11.7223 0.920833 10.574 0 9.20898 0C7.84398 0 6.69565 0.920833 6.33815 2.16667H5.14648C4.70232 2.16667 4.33398 2.535 4.33398 2.97917V5.14583C4.33398 6.18583 5.18982 7.04167 6.22982 7.04167H12.1882C13.2282 7.04167 14.084 6.18583 14.084 5.14583V2.97917C14.084 2.535 13.7157 2.16667 13.2715 2.16667Z" fill="#7170FA"/>
<path d="M15.1667 10.5625C15.1667 11.0067 14.7983 11.375 14.3542 11.375H4.0625C3.61833 11.375 3.25 11.0067 3.25 10.5625C3.25 10.1183 3.61833 9.75 4.0625 9.75H14.3542C14.7983 9.75 15.1667 10.1183 15.1667 10.5625Z" fill="white"/>
<path d="M15.1667 14.0835C15.1667 14.5277 14.7983 14.896 14.3542 14.896H4.0625C3.61833 14.896 3.25 14.5277 3.25 14.0835C3.25 13.6393 3.61833 13.271 4.0625 13.271H14.3542C14.7983 13.271 15.1667 13.6393 15.1667 14.0835Z" fill="white"/>
<path d="M14.8742 16.9865L13.4442 18.4165H4.0625C3.61833 18.4165 3.25 18.0482 3.25 17.604C3.25 17.1598 3.61833 16.7915 4.0625 16.7915H14.3542C14.5492 16.7915 14.7333 16.8673 14.8742 16.9865Z" fill="white"/>
<path d="M4.33333 3.25H2.97917C1.3325 3.25 0 4.5825 0 6.22917V19.7708C0 21.4175 1.3325 22.75 2.97917 22.75H9.20833V18.4167H4.0625C3.61833 18.4167 3.25 18.0483 3.25 17.6042C3.25 17.16 3.61833 16.7917 4.0625 16.7917H9.20833V14.8958H4.0625C3.61833 14.8958 3.25 14.5275 3.25 14.0833C3.25 13.6392 3.61833 13.2708 4.0625 13.2708H9.20833V11.375H4.0625C3.61833 11.375 3.25 11.0067 3.25 10.5625C3.25 10.1183 3.61833 9.75 4.0625 9.75H9.20833V7.04167H6.22917C5.18917 7.04167 4.33333 6.18583 4.33333 5.14583V3.25Z" fill="#7170FA"/>
<path d="M9.20898 0C7.84398 0 6.69565 0.920833 6.33815 2.16667H5.14648C4.70232 2.16667 4.33398 2.535 4.33398 2.97917V3.25V5.14583C4.33398 6.18583 5.18982 7.04167 6.22982 7.04167H9.20898V0Z" fill="#7170FA"/>
<path d="M9.20833 9.75H4.0625C3.61833 9.75 3.25 10.1183 3.25 10.5625C3.25 11.0067 3.61833 11.375 4.0625 11.375H9.20833V9.75Z" fill="#DEDEDE"/>
<path d="M9.20833 13.271H4.0625C3.61833 13.271 3.25 13.6393 3.25 14.0835C3.25 14.5277 3.61833 14.896 4.0625 14.896H9.20833V13.271Z" fill="#DEDEDE"/>
<path d="M9.20833 16.7915H4.0625C3.61833 16.7915 3.25 17.1598 3.25 17.604C3.25 18.0482 3.61833 18.4165 4.0625 18.4165H9.20833V16.7915Z" fill="#DEDEDE"/>
<path d="M13.5709 26C13.3575 26 13.1495 25.9155 12.9967 25.7616C12.8093 25.5742 12.7248 25.3077 12.7714 25.0456L13.3455 21.7901C13.3737 21.6266 13.4539 21.4749 13.5709 21.3579L21.6146 13.3141C22.6026 12.3251 23.5733 12.5916 24.1041 13.1224L25.4442 14.4625C26.1841 15.2024 26.1841 16.4038 25.4442 17.1437L17.4005 25.1875C17.2835 25.3056 17.1318 25.3846 16.9671 25.4139L13.7117 25.987L13.5709 26Z" fill="#FFC107"/>
<path d="M22.9991 12.6479C22.5745 12.6479 22.0967 12.8321 21.6146 13.3142L13.5709 21.358C13.4539 21.475 13.3737 21.6266 13.3455 21.7902L12.7714 25.0456C12.7248 25.3078 12.8093 25.5743 12.9967 25.7617C13.0054 25.7704 13.013 25.778 13.0216 25.7855L24.8939 13.9122L24.103 13.1214C23.8322 12.8505 23.4444 12.6479 22.9991 12.6479Z" fill="#DEA806"/>
</g>
<defs>
<clipPath id="clip0_676_719">
<rect width="26" height="26" fill="white"/>
</clipPath>
</defs>
</svg>
