<svg width="26" height="26" viewBox="0 0 26 26" fill="none" xmlns="http://www.w3.org/2000/svg">
<path d="M0.355196 18.9152C0.478543 20.0404 1.39002 20.9196 2.51949 20.9986C2.61293 21.0052 2.70576 21.0118 2.79859 21.0178C3.48728 21.0645 4.02267 21.6364 4.02267 22.3269V24.9368C4.02267 25.8148 5.02758 26.313 5.72587 25.7812C7.00028 24.8104 8.69566 23.3666 9.73591 21.8694C9.98205 21.5148 10.3887 21.3082 10.8204 21.3106C14.0232 21.3268 17.226 21.2238 20.4287 20.9986C21.3216 20.9363 22.0798 20.3752 22.4176 19.5859C22.5074 19.3787 22.5673 19.1547 22.593 18.9206C23.0673 14.5877 23.0673 10.2543 22.593 5.92086C22.4697 4.79677 21.5576 3.92181 20.4299 3.84279C15.6587 3.50804 10.8881 3.44096 6.11745 3.64155C4.9185 3.69126 3.719 3.75834 2.52005 3.84279C1.39179 3.92181 0.479102 4.79677 0.355754 5.92086C-0.118492 10.2525 -0.118492 14.5835 0.355196 18.9152Z" fill="#F4DD45"/>
<path d="M2.41097 5.92095C1.93672 10.2527 1.93672 14.5836 2.41097 18.9154C2.53462 20.0406 3.44538 20.9195 4.57542 20.9987C4.66814 21.0055 4.76183 21.0113 4.85456 21.018C5.54321 21.0644 6.07829 21.6362 6.07829 22.3267V24.9364C6.07829 25.1151 6.11983 25.2774 6.19224 25.4194C6.03192 25.5459 5.87643 25.6666 5.72576 25.7815C5.02747 26.3128 4.02297 25.8144 4.02297 24.9364V22.3267C4.02297 21.6362 3.48692 21.0644 2.79828 21.018C2.70555 21.0113 2.61282 21.0055 2.51913 20.9987C1.39006 20.9195 0.478283 20.0406 0.355646 18.9154C-0.118549 14.5836 -0.118549 10.2527 0.355646 5.92095C0.479299 4.7967 1.39199 3.92164 2.5201 3.84247C3.71874 3.75848 4.91829 3.69084 6.11785 3.64158C8.25431 3.55175 10.3917 3.51503 12.5282 3.53342C11.0765 3.54403 9.62485 3.58075 8.17317 3.64158C6.97458 3.69084 5.77497 3.75843 4.57542 3.84247C3.44731 3.92169 2.53462 4.79675 2.41097 5.92095Z" fill="#EAB14D"/>
<path d="M12.3493 8.41993H3.22803C3.01129 8.41993 2.83569 8.24427 2.83569 8.02759C2.83569 7.81091 3.01135 7.63525 3.22803 7.63525H12.3493C12.566 7.63525 12.7416 7.81091 12.7416 8.02759C12.7416 8.24427 12.566 8.41993 12.3493 8.41993Z" fill="#404A4A"/>
<path d="M12.3493 10.3901H3.22803C3.01129 10.3901 2.83569 10.2145 2.83569 9.9978C2.83569 9.78112 3.01135 9.60547 3.22803 9.60547H12.3493C12.566 9.60547 12.7416 9.78112 12.7416 9.9978C12.7416 10.2145 12.566 10.3901 12.3493 10.3901Z" fill="#404A4A"/>
<path d="M12.3493 12.3604H3.22803C3.01129 12.3604 2.83569 12.1847 2.83569 11.968C2.83569 11.7513 3.01135 11.5757 3.22803 11.5757H12.3493C12.566 11.5757 12.7416 11.7513 12.7416 11.968C12.7416 12.1847 12.566 12.3604 12.3493 12.3604Z" fill="#404A4A"/>
<path d="M12.3493 14.3311H3.22803C3.01129 14.3311 2.83569 14.1554 2.83569 13.9387C2.83569 13.722 3.01135 13.5464 3.22803 13.5464H12.3493C12.566 13.5464 12.7416 13.722 12.7416 13.9387C12.7416 14.1554 12.566 14.3311 12.3493 14.3311Z" fill="#404A4A"/>
<path d="M6.8043 16.3013H3.22803C3.01129 16.3013 2.83569 16.1256 2.83569 15.9089C2.83569 15.6923 3.01135 15.5166 3.22803 15.5166H6.80435C7.02108 15.5166 7.19669 15.6923 7.19669 15.9089C7.19669 16.1256 7.02103 16.3013 6.8043 16.3013Z" fill="#404A4A"/>
<path d="M14.0161 18.3624C13.946 18.3624 13.8752 18.3437 13.8112 18.3044C13.6265 18.191 13.5687 17.9494 13.6821 17.7647L13.9591 17.3136C14.0725 17.1289 14.3142 17.0711 14.4987 17.1845C14.6834 17.2979 14.7412 17.5395 14.6278 17.7242L14.3508 18.1753C14.2767 18.296 14.1479 18.3624 14.0161 18.3624Z" fill="#404A4A"/>
<path d="M20.454 13.5442C20.2563 13.5442 20.0863 13.3953 20.0644 13.1944C19.9835 12.4524 20.7924 11.1989 22.119 9.21523C23.2061 7.58942 24.4384 5.74667 24.6108 4.67742C24.7597 3.75244 24.3642 3.103 23.4352 2.74718C23.2328 2.66968 23.1316 2.44279 23.2091 2.24043C23.2866 2.03812 23.5134 1.93681 23.7159 2.01435C24.984 2.50002 25.5925 3.51616 25.3855 4.80214C25.1858 6.04054 23.9583 7.87618 22.7712 9.65139C21.8887 10.971 20.7904 12.6135 20.8444 13.1092C20.868 13.3246 20.7123 13.5183 20.4969 13.5418C20.4825 13.5434 20.4682 13.5442 20.454 13.5442Z" fill="#B4D0D5"/>
<path d="M23.6335 3.01706L24.3786 1.63748C24.567 1.28882 24.4368 0.852707 24.0881 0.66436L23.0181 0.0864184C22.6689 -0.102183 22.2333 0.0282739 22.045 0.376989L21.2998 1.75651" fill="#DFEAEF"/>
<path d="M23.8954 0.560299C23.5463 0.371697 23.1107 0.502154 22.9223 0.850869L22.1772 2.23044L21.2998 1.75655L22.045 0.376979C22.2333 0.0283145 22.6689 -0.102193 23.0181 0.0864083L23.8954 0.560299Z" fill="#B4D0D5"/>
<path d="M23.6733 3.66959C23.226 5.43048 22.3006 7.7234 21.0089 10.1147C20.4999 11.0563 19.9731 11.9425 19.4463 12.7524C19.2998 12.9768 19.1539 13.1949 19.0079 13.4073C17.0477 16.2653 15.1581 17.9864 14.2929 17.5187C13.4276 17.0516 13.8309 14.5284 15.1461 11.3216C15.2434 11.0836 15.3465 10.8414 15.4542 10.596C15.8424 9.71139 16.2944 8.78488 16.8029 7.84274C18.0945 5.45145 19.5049 3.4201 20.7317 2.0809C21.0654 1.71679 21.6043 1.62788 22.0385 1.86223L23.1397 2.45703C23.5744 2.69184 23.7952 3.19143 23.6733 3.66959Z" fill="#6BBEF6"/>
<path d="M14.2929 17.519C13.1315 16.8916 14.2554 12.5593 16.8029 7.84307C18.0947 5.45168 19.5046 3.42038 20.7317 2.08067C21.0652 1.71692 21.6043 1.62775 22.0385 1.86236L22.4375 2.07793C22.3182 2.01349 22.055 2.2516 21.7987 2.65709C20.8538 4.14924 19.6194 6.27535 18.3277 8.66674C15.7803 13.383 13.9736 17.3465 14.2929 17.519Z" fill="#528ECB"/>
<path d="M19.4467 12.7526C19.3002 12.977 19.1542 13.1951 19.0083 13.4075L15.1465 11.3218C15.2438 11.0838 15.3469 10.8416 15.4546 10.5962L19.4467 12.7526Z" fill="#DFEAEF"/>
</svg>
