<svg width="24" height="26" viewBox="0 0 24 26" fill="none" xmlns="http://www.w3.org/2000/svg">
<path d="M11.9329 5.58594L12.5179 6.3732L11.9329 7.10932C10.1994 7.10932 8.78955 8.52155 8.78955 10.2577V11.4638C8.78955 11.8847 8.44886 12.2255 8.02905 12.2255C7.60925 12.2255 7.26855 11.8847 7.26855 11.4638V10.2577C7.26855 7.68163 9.36089 5.58594 11.9329 5.58594Z" fill="#7170F2"/>
<path d="M16.5979 10.2578V11.4638C16.5979 11.8848 16.2572 12.2255 15.8374 12.2255C15.4176 12.2255 15.0769 11.8848 15.0769 11.4638V10.2578C15.0769 8.52155 13.667 7.10938 11.9336 7.10938V5.58594C14.5056 5.58594 16.5979 7.68163 16.5979 10.2578Z" fill="#7170F2"/>
<path d="M11.934 10.7022L14.6592 16.0382L11.934 19.7031H8.17722C7.02484 19.7031 6.08691 18.7636 6.08691 17.6089V12.7964C6.08691 11.6416 7.02484 10.7021 8.17722 10.7021H11.934V10.7022Z" fill="#7170F2"/>
<path d="M17.7807 12.7963V17.6088C17.7807 18.7636 16.8428 19.703 15.6904 19.703H11.9336V10.7021H15.6904C16.8428 10.7021 17.7807 11.6416 17.7807 12.7963Z" fill="#7170F2"/>
<path d="M10.7961 1.95604C10.7943 1.69802 10.6497 1.4497 10.4293 1.31732L8.4307 0.109637C8.07102 -0.107707 7.60363 0.00812511 7.38669 0.368367C7.16975 0.728609 7.28538 1.19676 7.64502 1.41405L8.0894 1.68259C6.06739 2.37286 4.2475 3.60395 2.84426 5.25444C1.01014 7.41183 0 10.1626 0 13C0 15.8374 1.01014 18.5882 2.84431 20.7456C4.65756 22.8783 7.16625 24.3116 9.90829 24.7812C9.9517 24.7887 9.99482 24.7923 10.0374 24.7923C10.4011 24.7923 10.7227 24.53 10.7861 24.1588C10.8569 23.7441 10.5787 23.3505 10.1647 23.2796C7.77344 22.8699 5.58492 21.6193 4.00232 19.7578C2.40216 17.8758 1.52095 15.4758 1.52095 13C1.52095 10.5242 2.40216 8.12419 4.00227 6.24213C5.20833 4.82356 6.76645 3.76025 8.49789 3.15301L8.22819 3.63254C8.02202 3.99907 8.15151 4.46357 8.51744 4.67005C8.63545 4.73662 8.76357 4.76826 8.89002 4.76826C9.15566 4.76826 9.41358 4.62861 9.55327 4.38029L10.6963 2.34818C10.7628 2.22904 10.8003 2.09285 10.7961 1.95604Z" fill="#7170F2"/>
<path d="M21.0231 5.2547C19.2099 3.12194 16.7012 1.68869 13.9591 1.21901C13.545 1.14817 13.1521 1.42676 13.0813 1.84139C13.0105 2.25607 13.2887 2.64967 13.7027 2.72061C16.094 3.13027 18.2825 4.38096 19.8651 6.24239C21.4652 8.12445 22.3464 10.5245 22.3464 13.0003C22.3464 15.4761 21.4652 17.8761 19.8651 19.7581C18.659 21.1767 17.1009 22.24 15.3695 22.8473L15.6392 22.3677C15.8453 22.0012 15.7158 21.5367 15.3499 21.3302C14.984 21.1238 14.5203 21.2534 14.3141 21.62L13.171 23.6521C12.9654 23.998 13.0902 24.4809 13.4381 24.6829L15.4367 25.8906C15.5596 25.9649 15.695 26.0003 15.8288 26.0003C16.0865 26.0003 16.3379 25.869 16.4807 25.6319C16.6977 25.2717 16.582 24.8035 16.2224 24.5862L15.778 24.3177C17.8 23.6274 19.6199 22.3963 21.0231 20.7458C22.8573 18.5884 23.8674 15.8377 23.8674 13.0003C23.8674 10.1628 22.8573 7.41209 21.0231 5.2547Z" fill="#7170F2"/>
<path d="M11.9334 13.9141L12.4304 15.1181L11.9334 16.4912C11.5135 16.4912 11.1729 16.1504 11.1729 15.7294V14.6758C11.1729 14.2553 11.5135 13.9141 11.9334 13.9141Z" fill="#7170F2"/>
<path d="M12.6941 14.6758V15.7295C12.6941 16.1505 12.3534 16.4912 11.9336 16.4912V13.9141C12.3534 13.9141 12.6941 14.2553 12.6941 14.6758Z" fill="#7170F2"/>
</svg>
