<svg width="26" height="26" viewBox="0 0 26 26" fill="none" xmlns="http://www.w3.org/2000/svg">
<path d="M24.9178 3.48425V10.3529C24.9178 11.6298 23.8827 12.6652 22.6054 12.6652H21.3412V15.5791C21.3412 16.1536 20.6554 16.4507 20.2362 16.058L16.6162 12.6652H11.6805C10.4036 12.6652 9.36816 11.6301 9.36816 10.3529V3.48425C9.36816 2.20727 10.4033 1.17188 11.6805 1.17188H22.6054C23.8827 1.17188 24.9178 2.20727 24.9178 3.48425Z" fill="#9ABBFE"/>
<path d="M16.6333 12.6773V18.9374C16.6333 20.2176 15.6028 21.2479 14.322 21.2479H9.38963L5.76723 24.6512C5.34582 25.0414 4.65898 24.7446 4.65898 24.1674V21.2479H3.39446C2.11451 21.2479 1.08398 20.2176 1.08398 18.9374V12.0688C1.08398 10.7886 2.11451 9.7583 3.39446 9.7583H9.37365V10.3514C9.37365 11.6317 10.4042 12.6619 11.6841 12.6619H16.6174L16.6333 12.6773Z" fill="#3F3EED"/>
<path d="M20.2651 6.08989H14.0208C13.5896 6.08989 13.2402 5.74079 13.2402 5.30935C13.2402 4.87791 13.5896 4.52881 14.0208 4.52881H20.2651C20.6963 4.52881 21.0457 4.87791 21.0457 5.30935C21.0457 5.74079 20.6963 6.08989 20.2651 6.08989Z" fill="#587FB7"/>
<path d="M20.2651 9.21196H14.0208C13.5896 9.21196 13.2402 8.86286 13.2402 8.43142C13.2402 7.99998 13.5896 7.65088 14.0208 7.65088H20.2651C20.6963 7.65088 21.0457 7.99998 21.0457 8.43142C21.0457 8.86286 20.6963 9.21196 20.2651 9.21196Z" fill="#587FB7"/>
<path d="M6.04812 16.2446C5.9387 16.2446 5.84499 16.214 5.75156 16.182C5.65785 16.1349 5.56414 16.0723 5.50158 16.0114C5.42358 15.932 5.36129 15.8543 5.33014 15.7614C5.28329 15.6669 5.26758 15.5585 5.26758 15.4489C5.26758 15.246 5.34558 15.0434 5.50158 14.9015C5.78297 14.6057 6.29783 14.6057 6.59439 14.9015C6.67239 14.9809 6.73495 15.0586 6.76637 15.1515C6.81322 15.246 6.82893 15.3543 6.82893 15.4489C6.82893 15.5585 6.81322 15.6669 6.76637 15.7614C6.73522 15.8543 6.67266 15.932 6.59439 16.0114C6.4541 16.1514 6.25097 16.2446 6.04812 16.2446Z" fill="white"/>
<path d="M9.17117 16.2444C9.06175 16.2444 8.96804 16.2138 8.8746 16.1818C8.7809 16.1347 8.68719 16.0721 8.62462 16.0112C8.46862 15.8695 8.39062 15.6667 8.39062 15.4487C8.39062 15.3541 8.40633 15.2458 8.45319 15.1513C8.48433 15.0584 8.54662 14.9807 8.62462 14.9013C8.68719 14.8236 8.7809 14.7778 8.8746 14.7307C9.15546 14.621 9.51458 14.6836 9.71717 14.9013C9.87344 15.043 9.95144 15.2458 9.95144 15.4487C9.95144 15.6667 9.87344 15.8695 9.71717 16.0112C9.65515 16.0721 9.56117 16.1347 9.46746 16.1818C9.37402 16.2138 9.28058 16.2444 9.17117 16.2444Z" fill="white"/>
<path d="M12.2932 16.2446C12.0901 16.2446 11.8873 16.1517 11.7467 16.0114C11.5907 15.8697 11.5127 15.6669 11.5127 15.4489C11.5127 15.246 11.5907 15.0434 11.7467 14.9015C12.0281 14.6057 12.5584 14.6057 12.8395 14.9015C12.9175 14.9809 12.9801 15.0586 13.0115 15.1515C13.0583 15.246 13.074 15.3543 13.074 15.4489C13.074 15.6669 12.996 15.8697 12.8398 16.0114C12.6992 16.1514 12.4961 16.2446 12.2932 16.2446Z" fill="white"/>
<path d="M6.04866 6.87017H4.48757C4.05641 6.87017 3.70703 6.52106 3.70703 6.08962C3.70703 5.65819 4.05641 5.30908 4.48757 5.30908H6.04866C6.47982 5.30908 6.8292 5.65819 6.8292 6.08962C6.8292 6.52106 6.47955 6.87017 6.04866 6.87017Z" fill="#3F3EED"/>
<path d="M21.66 20.9205H20.0989C19.6677 20.9205 19.3184 20.5714 19.3184 20.1399C19.3184 19.7085 19.6677 19.3594 20.0989 19.3594H21.66C22.0912 19.3594 22.4405 19.7085 22.4405 20.1399C22.4405 20.5714 22.0912 20.9205 21.66 20.9205Z" fill="#3F3EED"/>
</svg>
