<svg width="26" height="25" viewBox="0 0 26 25" fill="none" xmlns="http://www.w3.org/2000/svg">
<path d="M18.2812 0C14.0251 0 10.5625 3.46262 10.5625 7.71875C10.5625 11.9749 14.0251 15.4375 18.2812 15.4375C22.5374 15.4375 26 11.9749 26 7.71875C26 3.46262 22.5374 0 18.2812 0Z" fill="#AE85CC"/>
<path d="M22.8719 8.97764L22.1777 8.45703C22.4119 8.00228 22.5469 7.47197 22.5469 6.90576C22.5469 5.22571 21.3623 3.85889 19.9062 3.85889C18.4502 3.85889 17.2656 5.22571 17.2656 6.90576C17.2656 8.58581 18.4502 9.95264 19.9062 9.95264C20.4658 9.95264 20.9848 9.75022 21.4123 9.40638L22.1406 9.95269C22.3201 10.0873 22.5748 10.0509 22.7094 9.87144L22.9531 9.54644C23.0877 9.36693 23.0513 9.11226 22.8719 8.97764ZM19.9062 8.73394C19.1222 8.73394 18.4844 7.91387 18.4844 6.90581C18.4844 5.89775 19.1222 5.07769 19.9062 5.07769C20.6903 5.07769 21.3281 5.89775 21.3281 6.90581C21.3281 7.1945 21.2756 7.46766 21.1825 7.7107L20.9219 7.51519C20.7424 7.38057 20.4877 7.41693 20.3531 7.59644L20.1094 7.92144C19.9748 8.10095 20.0112 8.35557 20.1906 8.49019L20.3774 8.63029C20.2299 8.69717 20.0714 8.73394 19.9062 8.73394Z" fill="#F3F1F1"/>
<path d="M7.71875 0C3.46262 0 0 3.46262 0 7.71875C0 11.9749 3.46262 15.4375 7.71875 15.4375C11.9749 15.4375 15.4375 11.9749 15.4375 7.71875C15.4375 3.46262 11.9749 0 7.71875 0Z" fill="#9CC445"/>
<path d="M8.9375 15.0311C4.68137 15.0311 1.21875 11.5684 1.21875 7.31231C1.21875 4.13406 3.14976 1.39868 5.90002 0.216797C2.5187 1.03666 0 4.08871 0 7.71856C0 11.9747 3.46262 15.4373 7.71875 15.4373C8.79663 15.4373 9.82348 15.2149 10.7562 14.8141C10.1728 14.9555 9.56384 15.0311 8.9375 15.0311Z" fill="#86AD32"/>
<path d="M9.14062 5.07812V4.67188C9.14062 4.44752 8.95873 4.26562 8.73438 4.26562H5.28125C4.94472 4.26562 4.67188 4.53847 4.67188 4.875V9.75C4.67188 9.97435 4.85377 10.1563 5.07812 10.1563H5.48438C5.70873 10.1563 5.89062 9.97435 5.89062 9.75V7.92188H7.92188C8.14623 7.92188 8.32812 7.73998 8.32812 7.51563V7.10938C8.32812 6.88502 8.14623 6.70313 7.92188 6.70313H5.89062V5.48438H8.73438C8.95873 5.48438 9.14062 5.30248 9.14062 5.07812Z" fill="#F3F1F1"/>
<path d="M13 8.125C8.74387 8.125 5.28125 11.5876 5.28125 15.8438C5.28125 17.978 6.16571 20.0135 7.71692 21.4708L6.92707 23.8403C6.81733 24.1694 7.16366 24.4825 7.48059 24.3386L10.2766 23.0677C11.1466 23.3961 12.0619 23.5625 13 23.5625C17.2561 23.5625 20.7188 20.0999 20.7188 15.8438C20.7188 11.5876 17.2561 8.125 13 8.125Z" fill="#FFC44F"/>
<path d="M8.14587 23.8402L8.93572 21.4707C7.38446 20.0135 6.5 17.978 6.5 15.8438C6.5 11.7927 9.63701 8.46071 13.6094 8.14902C13.4083 8.13323 13.2051 8.125 13 8.125C8.74387 8.125 5.28125 11.5876 5.28125 15.8438C5.28125 17.978 6.16571 20.0135 7.71692 21.4708L6.92707 23.8403C6.81733 24.1694 7.16366 24.4825 7.48059 24.3386L8.13363 24.0417C8.12084 23.9779 8.12271 23.9096 8.14587 23.8402Z" fill="#FFB357"/>
<path d="M15.5275 18.5108L15.8909 18.3291C16.0915 18.2288 16.1728 17.9848 16.0726 17.7841L15.2335 16.0469H15.2039L13.5443 12.7275C13.4252 12.4895 13.1629 12.3525 12.8923 12.4C12.6978 12.434 12.5346 12.5666 12.4463 12.7432L10.7648 16.0469V16.1061L9.92579 17.7841C9.82545 17.9848 9.9068 18.2288 10.1075 18.3291L10.4709 18.5108C10.6716 18.6112 10.9156 18.5298 11.0159 18.3291L11.5477 17.2656H14.4507L14.9825 18.3291C15.0828 18.5299 15.3268 18.6112 15.5275 18.5108ZM12.1571 16.0469L12.9992 14.3626L13.8413 16.0469H12.1571Z" fill="#F3F1F1"/>
</svg>
