<svg width="20" height="26" viewBox="0 0 20 26" fill="none" xmlns="http://www.w3.org/2000/svg">
<path d="M17.5212 16.8086H2.28686C0.483056 16.8086 -0.593862 14.8134 0.348333 13.3139L7.96552 1.00981C8.80758 -0.336604 11.0005 -0.336604 11.8426 1.00981L19.4598 13.3132C20.3981 14.8096 19.3296 16.8086 17.5212 16.8086Z" fill="#FFDF40"/>
<path d="M17.5215 16.8086C19.3298 16.8086 20.3984 14.8096 19.46 13.3132L11.8428 1.00979C11.4218 0.336578 10.6631 0 9.9043 0V16.8086H17.5215Z" fill="#FFBE40"/>
<path d="M9.14258 4.62109H10.666V10.7148H9.14258V4.62109Z" fill="#4D5E80"/>
<path d="M9.9043 4.62109H10.666V10.7148H9.9043V4.62109Z" fill="#3D4566"/>
<path d="M9.14258 12.2383H10.666V13.7617H9.14258V12.2383Z" fill="#4D5E80"/>
<path d="M9.9043 12.2383H10.666V13.7617H9.9043V12.2383Z" fill="#3D4566"/>
<path d="M4.57227 18.332H3.04883V21.3789H1.52539V18.332H0.00195312V22.9023H3.04883V26H4.57227V22.9023H6.0957V21.3789H4.57227V18.332Z" fill="#4D5E80"/>
<path d="M19.8066 21.3789H18.2832V18.332H16.7598V21.3789H15.2363V18.332H13.7129V22.9023H16.7598V26H18.2832V22.9023H19.8066V21.3789Z" fill="#3D4566"/>
<path d="M7.61914 26H12.1895V18.332H7.61914V26ZM9.14258 19.8555H10.666V24.4766H9.14258V19.8555Z" fill="#4D5E80"/>
<path d="M9.9043 19.8555H10.666V24.4766H9.9043V26H12.1895V18.332H9.9043V19.8555Z" fill="#3D4566"/>
</svg>
