<svg width="16" height="15" viewBox="0 0 16 15" fill="none" xmlns="http://www.w3.org/2000/svg">
<path d="M9.99609 5.5625H14.3438C14.6172 5.5625 14.8633 5.75391 14.9453 6.02734C15.0547 6.27344 14.9453 6.57422 14.7266 6.73828L11.1445 9.52734L12.5391 13.9023C12.6484 14.1758 12.5391 14.4766 12.293 14.6406C12.0742 14.8047 11.7461 14.8047 11.5273 14.6133L8 11.8789L4.44531 14.6133C4.22656 14.8047 3.89844 14.8047 3.67969 14.6406C3.43359 14.4766 3.32422 14.1758 3.43359 13.9023L4.82812 9.52734L1.24609 6.73828C1.02734 6.57422 0.917969 6.27344 1.02734 6.02734C1.10938 5.75391 1.35547 5.5625 1.65625 5.5625H5.97656L7.37109 1.21484C7.45312 0.941406 7.69922 0.75 8 0.75C8.27344 0.75 8.51953 0.941406 8.60156 1.21484L9.99609 5.5625Z" fill="white"/>
</svg>
